<svg xmlns="http://www.w3.org/2000/svg" width="128" height="128">
  <path fill="#541F29" stroke="#541F29" d="m52.5 32 4.5.5-15 8q-.75 3.25 1 4-1.77 2.06-5 1.5v2.5l3 4 1 6-1.5 1.5-1-1-1.5.5-.5-2.5-1 4-2.5-7.5-.5-6.5-1.5.5q.75-2.25-1.5-1.5-1.25 2.25-6 1l-7-3-6-1L8 40.5l1.5-.5 8 3L28 44.5l-3 1 3.5.5q.75-1.75 4-1l5-3 1 2 2.5-1q1-3.38-1-4.5L52.5 32zM40 44v1h1l-1-1zm19.5-9q.92 1.75 3.5 1 .75 2.58-1 3.5l.5 1.5q-3.25.75-4-1l-3 2v-1q2.25.75 1.5-1.5l2.5-4.5zm1.5 3v1-1zm26.5-1 .5 1.5h-1l.5-1.5zm.5 3 5 1 1 4.5 2 2v2l-.5 1.5H98q-1.33-4.12 2-3l1 5q-3.38 1-4.5-1h-5l-10 6 .5-1.5-1-1 1.5-1.5q1 2 2 0l5.5-3.5 1-2-1-3v-2q-2.5-1-2-3.5zm5 8v1h1l-1-1zm-10 7v1-1zM45.5 42v1-1zm34 16v1-1zm-42 4 .5 1.5h-1l.5-1.5zm2 1 .5 6.5h-1l-1-4 1.5-2.5z"/>
  <path fill="#7E7D8E" stroke="#7E7D8E" d="M56.5 25v1-1zm0 2v1-1zm-3 4 1.5.5-1.5.5v-1zm3 0v1-1zm-6 1v1-1zm-2 1v1-1zm9 0v1-1zm-12 1v1-1zm9 0 1.5.5-2.5 2.5h-2L48 39.5l1 1-2.5 2.5v-2l-3 2q-3-1.5 0-3l11-6zM48 40v1-1zm10.5-5v1-1zm4 0 3.5 2.5-1.5.5-2.5-2.5.5-.5z" opacity=".902"/>
  <path fill="#7E7D8E" stroke="#7E7D8E" d="m40.5 37-1 3q2.25-.75 1.5 1.5-1.25 2.75-2.5.5l-2 1-.5-.5 2-2 2.5-3.5zm-32 2 1.5.5-1.5.5v-1zm46 0v1-1zm9 0 1.5.5-1.5.5v-1zm-51 1 2.5.5-2.5.5v-1zm75 0v1-1zm-79 1v1-1zm9 0 2.5.5-2.5.5v-1zm33 0v1-1zm12 0v1-1zm-40 1 2.5.5-2.5.5v-1zm42 0v1-1zm24 0v1-1zm-76 1v1-1zm15 0 2.5.5-2.5.5v-1zm26 0 1.5.5-2.5 1.5q-1.5-1 1-2zm41 0 .5 2.5h-1l.5-2.5zm-80 1v1-1zm29 0v1-1zm-26 1 1.5.5-1.5.5v-1zm24 0v1-1zm9 0q1.5 1-1 2l-3 1v-1l4-2zm-30 1 1.5.5-1.5.5v-1zm19 0v1-1zm-14 1 3.5.5-3.5.5v-1zm13 1v1-1zm6 0v1-1zm45 1v1-1zm-2 1v1-1zm10 0v1-1zm-57 1v1-1zm45 0v1-1zm8 1 1.5.5-1.5.5v-1zm-12 2v1-1zm5 1q1.5 1-1 2-1.5-1 1-2zm-9 2v1-1zm-35 3 .5 7.5h-1l.5-7.5zm28 21 1.5.5-1.5.5v-1zm-3 5v1-1zm6 1 2.5.5-2.5.5v-1zm-2 1v1-1zm-1 4v1-1z" opacity=".902"/>
  <path fill="#545058" stroke="#545058" d="M55.5 31v1-1zm-4 1v1-1zm6 0q1.5 1-1 2-1.5-1 1-2zm-11 2v1-1zm7 0v1-1zm-9 1v1-1zm7 0v1-1zm9 0 1.5.5-1.5.5v-1zm-18 1q1.5 1-1 2-1.5-1 1-2zm7 0v1-1zm9 0v1-1zm-11 1q1.5 1-1 2l-4 2q-1.5-1 1-2l4-2zm4 0 .5.5-2.5 2.5-4.5 2q1.13 3.33-3 2l.5-2q1.5 2.5 3-1l6-4zm12 0 .5 1.5q-1 2.5-2 1l1.5-2.5zm-6 1v1-1zm3 0v1-1zm-21 1 1.5.5-1.5.5v-1zm48 0v1-1zm-77 1 1.5.5-1.5.5v-1zm48 0q1.5 1-1 2-1.5-1 1-2zm-45 1L27 43.5l-4.5.5-1-1-8-1v-1zm-3 1v1-1zm30 0v1-1zm14 0 1.5.5-1.5.5v-1zm-41 1v1-1zm20 0 1.5.5-2.5 1.5-7 1v-1l7-1 1-1zm5 0 2.5 1.5-1.5.5q-2.5-1-1-2zm-23 1 2.5.5-2.5.5v-1zm4 1v1-1zm3 1 1.5.5-1.5.5v-1zm8 0q2.63-.67 1.5 2l-3-.5 1.5-1.5zm8 0v1-1zm52 0v1-1zm5 0q2.5 1 1 2-2.5-1-1-2zm-62 1 .5 1.5h-1l.5-1.5zm57 1v1-1zm3 0v1-1zm2 2v1-1zm-54 3 .5 2.5h-1l.5-2.5zm-7 1 .5 2.5h-1l.5-2.5zm53 0v1-1zm-50 3 1 3 4.5-1.5q-2.33 3.17-1 10L40.5 70l-1-7-2 3-.5-1.5 1-2h-2l1.5-5.5zm-2 1 .5 1.5h-1l.5-1.5z" opacity=".957"/>
  <path fill="#545058" stroke="#545058" d="m38.5 67 .5 1.5h-1l.5-1.5z" opacity=".957"/>
  <path fill="#B9A0E3" stroke="#B9A0E3" d="m59.5 17 1.5 1.5 1 6h-1L60 21q-2.67-1.12-2 1.5L56.5 25l-.5-1.5q1.75-.75 1-4l2.5-2.5zm-3 9v1-1zm6 1 .5 2.5h-1l.5-2.5zm-6 1 .5 2.5h-1l.5-2.5zm1 6v1-1zm12 3 7 3L87 48.5q.75 2.25-1.5 1.5l-3-2-2 1-4.5-1.5q2.25-1.25-.5-2.5L68 40.5q-.5-3 1.5-3.5zm1.5 3v1h1l-1-1zm2 1v1h1l-1-1zm2 1v1h1l-1-1zm2 1v1h1l-1-1zm2 1v1-1zm-14.5-6v1-1zm-5 3 2.5.5-2.5.5-11 7h-3l-3 2h-2v-1l7-2 12-7zm-21 1v1-1zm5 3v1-1zm27 0 1.5.5-1.5.5v-1zm-29 1q1.5 1-1 2l-2.5-.5 3.5-1.5z" opacity=".89"/>
  <path fill="#B9A0E3" stroke="#B9A0E3" d="m73.5 46 1.5.5-1.5.5v-1zm18 7v1-1zm5 0v1-1zm-54 15v1-1zm51 12v1-1zm2 1q2.5 1 1 2-2.5-1-1-2zm2 3v1-1z" opacity=".89"/>
  <path fill="#6D34D0" stroke="#6D34D0" d="M58 21q2.67-1.12 2 1.5l2 3 1 9.5h-5v-2.5l-1-1v-8l1-2.5zm7 17q4.13-1.67 3 2.5l9 6-1.5.5-4-2h-3l-4-3H63q-1-3 2-2v-2zm-9.5 1q2.63-.67 1.5 2h-1.5l-4 4-10 5H39q-1.12-2.67 1.5-2l5-4 10-5z" opacity=".996"/>
  <path fill="#6D34D0" stroke="#6D34D0" d="m70.5 40 8.5 4.5-1.5-.5-7-3v-1zm-12 1v1-1zm-2 1v1-1z" opacity=".996"/>
  <path fill="#BFA3AC" stroke="#BFA3AC" d="M56.5 22v1-1zm6 4v1-1zm24 3v1-1zm4 1v1-1zm-38 1v1-1zm-3 1v1-1zm14 0v1-1zm-16 1v1-1zm9 1v1-1zm-13 1v1-1zm49 0v1-1zm-51 1v1-1zm16 0 .5 1.5q-1 2.5-2 1l1.5-2.5zm-5 1 .5.5-2 2 .5 1.5-1.5-.5q.75 2.25-1.5 1.5l-.5-.5 4.5-4.5zm18 0v1-1zm23 1v1-1zm-83 1v1-1zm43 0v1-1zm-46 1v1-1zm8 0 1.5.5-1.5.5v-1zm22 0v1-1zm-17 1 2.5.5-2.5.5v-1zm58 0v1-1zm16 0 .5 1.5h-1l.5-1.5zm-85 1v1-1zm17 0 1.5.5-1.5.5v-1zm9 0v1-1zm28 0v1-1zm-52 1v1-1zm19 0v1-1zm2 0v1-1zm13 0q1.5 1-1 2-1.5-1 1-2zm-32 1v1-1zm3 1v1-1zm26 0v1-1zm27 0v1-1zm26 0v1-1zm-76 1v1-1zm21 0v1-1zm32 0v1-1zm28 0v1-1zm2 0v1-1zm-79 1 1.5.5-1.5.5v-1zm52 0v1-1zm30 0 1.5.5-1.5.5v-1zm-74 1 1.5.5-1.5.5v-1zm77 0v1-1zm-20 1v1-1zm23 0v1-1zm2 1v1-1zm-29 1 .5.5-2.5 2.5-.5-.5 2.5-2.5zm31 0v1-1zm-74 1v1-1zm76 0v1-1zm-84 1 .5 1.5h-1l.5-1.5zm59 0 3.5.5-4.5 1.5q-1.5-1 1-2zm27 0q2.5 1 1 2-2.5-1-1-2zm-39 1q1.5 1-1 2-1.5-1 1-2zm17 0 1.5.5-1.5.5v-1zm-55 2 .5 1.5h-1l.5-1.5zm80 0 .5 1.5h-1l.5-1.5zm-88 1v1-1zm42 0q1.5 1-1 2-1.5-1 1-2zm11 0q1.5 1-1 2-1.5-1 1-2zm18 0 3.5.5-3.5.5v-1zm6 1 2.5.5-2.5.5v-1zm6 0q3.75-1 2.5 2l-4-.5 1.5-1.5zm-14 1q1.5 1-1 2-1.5-1 1-2zm-68 1 .5 1.5h-1l.5-1.5zm37 0q1.5 1-1 2-1.5-1 1-2zm11 0v1-1zm-2 1v1-1zm-12 1v1-1zm14 0v1-1zm-47 1v1-1zm49 0v1-1zm2 1 2.5.5-2.5.5v-1zm12 0q1.5 1-1 2-1.5-1 1-2zm-62 2v1-1zm1 3v1-1zm33 0 1.5.5-1.5.5v-1zm24 0 1.5 2.5q-1 1.5-2-1l.5-1.5zm-18 1v1-1zm-5 11v1-1zm2 0v1-1zm-2 7v1-1zm7 0 1.5.5-1.5.5v-1zm-8 2v1-1z" opacity=".294"/>
  <path fill="#DDE7ED" stroke="#DDE7ED" d="M58.5 17q1.5 1-1 2-1.5-1 1-2zm2 0q2 .5 1.5 3.5h-1l-.5-3.5zm-4 3 .5 1.5h-1l.5-1.5zm6 3 .5 2.5h-1l.5-2.5zm25 4 2.5.5-3.5 1.5q-1.5-1 1-2zm-32 1 .5 3-2-.5 1.5-2.5zm8 1 .5 2.5h-1l.5-2.5zm27 0v1-1zm-39 2v1-1zm40 1v1-1zm-45 1v1-1zm17 0 .5 2.5h-1l.5-2.5zm22 0 .5 6.5h-1l.5-6.5zm-41 1v1-1zm48 0v1-1zm-50 1v1-1zm13 0-.5 1.5 1 1-.5 1.5-1-2-1.5.5 2.5-2.5zm-16 2q1.5 1-1 2-1.5-1 1-2zm32 0v1-1zm22 0v1-1zm-20 1v1-1zm-66 1v1-1zm4 0 1.5.5-1.5.5v-1zm41 0v1-1zm23 0v1-1zm-58 1 1.5.5-1.5.5v-1zm33 0v1-1zm27 0v1-1zm17 0v1-1zm-87 1 2 2 10 4L31 48.5l-8.5.5-13-5L7 41.5l.5-.5zm16 0v1-1zm13 0v1-1zm-8 1v1-1zm6 0v1-1zm13 0v1-1zm12 0 .5.5-3.5 3.5-.5-.5 3.5-3.5zm21 0q2.5 1 1 2-2.5-1-1-2zm6 0 2.5 5.5-1.5-.5-1 1-3.5-3.5.5-.5 3 3 .5-.5q-1.75-1.75-.5-4.5zm-55 1v1-1zm33 0v1-1zm2 1v1-1zm2 1v1-1zm-14 1v1-1zm17 0v1-1zm30 0v1-1zm-49 1v1-1zm22 0v1-1zm-25 1 1.5.5-3.5 1.5v-1l2-1zm28 0 1.5.5-1.5.5v-1zm32 0v1-1zm-77 1q2 .5 1.5 3.5h-1l-.5-3.5zm48 0 1.5.5-1.5.5v-1zm7 0v1-1zm-43 1 1.5.5-1.5.5v-1zm39 0 1.5.5-1.5.5v-1zm-42 1 1.5.5-1.5.5v-1zm14 0 .5 1.5L46.5 63l-.5-.5 4-4 5.5-7.5zm2 0 1.5.5-1.5.5v-1zm24 2v1-1zm-23 1 .5 1.5h-1l.5-1.5zm34 0 4.5.5-3.5.5q-3.18 4.61-8.5 6l-.5 2-2.5-1.5 3.5-2.5H88q-.5-2.87 2.5-4l2-1zm29 0v1-1zm-23 1 .5.5-5.5 5.5-.5-.5 5.5-5.5zm-21 1v1-1zm-20 1 .5 1.5h-1l.5-1.5zm-23 1v1-1zm40 0q1.5 1-1 2-1.5-1 1-2zm29.5 0h6.5l5 2h4l2.5-1-1.5 3-10-2-1-1H105l-2 5-3 1.5-1.5 2.5-3 1-.5-.5 2.5-2.5 1.5.5q1-5 5-7V58zm17 2v1-1zm-64.5 0 .5 1.5-1 3 3.5 3.5.5-.5q-.5-3 1.5-3.5l1.5 2.5-3 2 8 8-.5.5L55 64.5v-2l1.5-2.5zm-13 1 1 4 1.5-.5-2.5 3.5v-7zm24 1 1.5.5-1.5.5v-1zm25 0v1-1zm-29 1 3.5 1.5-2.5 1.5v-2q-2.37-.13-1-1zm23 0v1-1zm-50 1v1-1zm1 3v1-1zm-11 1 9.5.5-9.5.5v-1zm24 0q1 2 2 0l1.5 1.5q3.11 8.39 9.5 13.5l3.5 2.5-.5 1.5-9.5-8.5-4.5-7.5q-4-.5-4.5 2.5l-.5 1.5q-2.75-1.25-.5-2.5l3.5-4.5zm14 0 2.5.5-2.5.5v-1zm-43 1 2.5.5-2.5.5v-1zm16 0v1-1zm33 0v1-1zm-53 1 1.5.5-1.5.5v-1zm58 0 1.5.5-1.5.5v-1zm-61 1 1.5.5-1.5.5v-1zm68 0 1.5.5-1.5.5v-1zm6 0 2.5 3.5h-1l-2-3 .5-.5zM11 72l2 .5q-2.5 1-2 3.5l12 .5-11.5.5-1.5-2.5 1-2.5zm86.5 0q2.5 1 1 2-2.5-1-1-2zm2 3 2.5 4.5h-1l-2-4 .5-.5zm-62 1q3.75-.75 4.5 1.5l-1.5-.5q-4 .75-3-1zm54 1v1-1zm-41 1 3.5 4.5q-1 1.5-2-1l-2-3 .5-.5zm18 0q2.5 1 1 2-2.5-1-1-2zm-26 1q3.45 10.55 12 16l3 2H60l-.5 3-.5-2-3.5-1L45 86.5l-3-5 .5-2.5zm36 0 1.5.5-1.5.5v-1zm10 0 4.5.5-4.5.5v-1zm-12 1v1-1zm-3 1v1-1zm29 0 2.5 4.5h-1l-2-4 .5-.5zm-48 3 2.5 3.5q-1 1.5-2-1l-.5-2.5zm41 2 2.5.5-2.5.5v-1zm-6 1 2.5.5-2.5.5v-1zm16 0v1-1zm-40 1 .5.5-2.5 2.5-.5-.5 2.5-2.5zm8 0 1.5.5-3 4v4l-2 4-9.5 11.5-5 1-1.5-2.5h1q-.88 3 3.5 1.5l9.5-11.5 3-9 2.5-3.5zm3 0 2.5.5-2.5.5v-1zm5 0 2.5.5-2.5.5v-1zm17 0 5.5 5.5-.5.5-5.5-5.5.5-.5zm-41 1v1-1zm49 0v1-1zm-48 2 1.5 3 2 .5-1.5.5-2.5-3.5.5-.5zm49 0v1-1zm-45 1v1-1zm46 1v1-1zm-3 1 1.5.5-1.5.5v-1zm-47 7v1-1z" opacity=".18"/>
  <path fill="#DDE7ED" stroke="#DDE7ED" d="m57.5 103 .5 1.5-2.5 4.5-.5-1.5 2.5-4.5z" opacity=".18"/>
  <path fill="#D24249" stroke="#D24249" d="m88.5 28 1.5 1.5 4 13h-1q.75-2.25-1.5-1.5-.92-1.75-3.5-1 .75-2.58-1-3.5v-7l1.5-1.5zm1 15 .5 1.5h-1l.5-1.5zm8 4h7l6 2 7.5 4.5-.5 1.5 2-1v2l1.5.5-1.5.5-3-2-7-2v1l8.5 3.5-1.5.5-1-1h-8l-3-2h-3L98 53.5l3-.5-1-2.5 1.5.5 1.5-.5-.5-1.5 2.5-.5-3.5-.5q-1 2-2 0-3 .5-2-1zm8.5 2v1h2l-2-1zm3 1-1 1 3 1h2l-4-2zm-4 1v1h1l-1-1zm2 1v1h2l-2-1zm7 0v1h1l-1-1zm2 1v1h1l-1-1zm-23.5-5v1-1zm4 1v1-1zm-8 1 1.5.5-9 7 1.5.5 2-2 .5.5-1.5 2.5-5 3h-6q-1.5-1 1-2l7-5q1.25 2.25 2.5-.5l1.5-2.5 4-2zM80 58v1-1zm11.5-6 1.5.5q-4.35 1.15-6.5 4.5l-.5-.5 3.5-3.5 2-1zm4 0 1.5.5-1.5.5v-1zm-4 14q2.5 1 1 2-2.79.67-1-2zm-3 3v1-1z" opacity=".973"/>
  <path fill="#F489A3" stroke="#F489A3" d="M87.5 28v1-1zm2 0v1-1zm-3 2 .5 7.5h-1l.5-7.5zm4 1v1-1zm1 2 .5 1.5h-1l.5-1.5zm1 3v1-1zm1 3v1-1zm-6 2v1-1zm1 2v1-1zm1 2v1-1zm7 3q2.25-.75 1.5 1.5-1 2.5-2 1l1-1-.5-1.5zm5 0h3l6 2 7 4 1.5-.5V55h3v2.5q-1.25 2.75-2.5.5l-3-1v2l-7.5-1.5 7-1-12-5 1.5-.5 9 4h2v-1l-9-4-5-1v2l-2.5-1.5 1.5-1.5zm16.5 7v1h1l-1-1zm2 1v1h1l-1-1zm-22.5-3v1-1zm-8 1 .5.5-4.5 4.5q-4.25.75-6 4h-7l-3 1q-1.5-1 1-2h8l11-8z" opacity=".984"/>
  <path fill="#F489A3" stroke="#F489A3" d="m99 54 2.5 1h3l2.5 1.5-4 2-8 9v3l4 5 4 8q-1 4 1 5l-1.5.5-4.5-3.5.5-1.5q-2.25.75-1.5-1.5l-2-2-1-4-4.5-5.5h-8q-1.25-2.25-6-1L69 67.5l1.5-1.5 14.5-.5-1-2 1.5.5q2.25-.75 1.5 1.5l1.5-.5 4.5-1v-1.5l6-6V54zM87 66v1-1zm5 0q-2 3 1 2 1-1-1-2zm-3 3v1-1zM78.5 56v1-1zm-4 3v1-1z" opacity=".984"/>
  <path fill="#F489A3" stroke="#F489A3" d="m74.5 64 8.5.5-8.5.5v-1z" opacity=".984"/>
  <path fill="#A6E7F0" stroke="#A6E7F0" d="M54.5 45v1-1zm-2 1v1-1zm-2 1v1-1zm32 1 2.5 1.5-1.5.5q-2.5-1-1-2zm-37 1v1-1zm11 2 2.5 1-2 7.5-2 3v2l6 6-.5.5-7-7H52q-.75 2.58 1 3.5l-1.5-.5-3 3-2 1-.5-1.5 2-3-1-1 .5-1.5-1.5-.5L56.5 51zm-11 14v1-1zm-2 3v1-1zm-19 1h12l3.5 2.5V73h-4.5l-2-1q-1.25 2.25-6 1L26 74.5l2.5 1.5 5.5.5-7.5.5q-1-2-2 0l-2-1H11q-.5-2.87 2.5-4l6-2h4l1-1zm22 3v1-1zm1 3 6.5 8.5L61 97h-3.5l-3-2-8.5-8.5-5-10 1.5.5 1-1 1 1 3.5-.5-.5-1.5zm10 0 4.5 5.5-.5.5-2.5-2.5-2-3 .5-.5zm22 7v1-1zm13 4v1-1zm-28 18q1.5 1-1 2-2.25-.75-1.5 1.5l-2.5 3.5-1.5-.5 4.5-5.5 2-1zm-8 4-.5 1.5-.5 2.5-.5-2.5 1.5-1.5z" opacity=".965"/>
  <path fill="#77D8E6" stroke="#77D8E6" d="m46 64 2 .5-1 3-1 3h2q-2.5.5-2 4l2 2-.5.5q-3.25.75-4-1-1 2-2 0h-13L26 74.5l1.5-1.5q4.83.83 7-1l1 1H40v-3h1.5l2.5-1 2-5zm-2 8v1-1zm8-8h1.5L65 74.5l1 2-.5.5-2-2q-5 1-6-2l-1.5.5 1-1-4-4-1-4.5zm9.5 15 4.5 4.5-.5.5-4.5-4.5.5-.5zm7 0v1-1zm10 1 13.5.5-9 1 10.5.5 1.5 1.5q-.75 2.25 1.5 1.5v1l-11 1q-.92 1.75-3.5 1l-1.5-3-4-1q-1.25 2.25-2.5-.5l.5-1.5 2 1v-2l2-1zm3.5 1v1-1zm-2 1v1-1zM63.5 92v1-1zm-1 2 .5 2.5q-2 1.12-1 4.5 2.67 1.13 2-1.5 2.5-1 2-3.5l3 1.5-2 1 .5 1.5q-2.62-.83-1.5 2.5l-4 3 .5 1.5q-1.25-2.25-2.5.5l-2 4.5q-3 1.25-2-2.5L62.5 94z" opacity=".996"/>
  <path fill="#88CFD7" stroke="#88CFD7" d="M57.5 35v1-1zm9 2 2.5.5-2.5.5v-1zm-41 5v1-1zm23 0v1-1zm-2 1v1-1zm19 0v1-1zm2 1v1-1zm-12 1v1-1zm-4 2v1-1zm-18 2v1-1zm13 0v1-1zm-3 1v1-1zm1 16v1-1zm7 1v1-1zm3 3v1-1zm1 2v1-1zm-9 2v1-1zm19 1 2.5 2.5-.5.5-2.5-2.5.5-.5zm-40 1v1-1zm9 0 2.5.5-2.5.5v-1zm46 3 7.5.5-7.5.5v-1zm-11 1v1-1zm8 0v1-1zm15 0v1-1zm-30 1q2.5 1 1 2-2.5-1-1-2zm13 0v1-1zm-9 3v1-1zm27 2 1.5.5-1.5.5v-1zm-27 1v1-1zm19 0 3.5.5-3.5.5v-1zm-14 2v1-1zm-7 1q1.5 1-1 2-1.5-1 1-2zm-2 3v1-1zm8 0v1-1zm-9 2v1-1zm8 1v1-1zm-9 1v1-1zm8 1v1-1zm-9 2v1-1zm8 0q1.5 1-1 2-1.5-1 1-2zm-9 2v1-1zm7 1v1-1zm-8 2v1-1zm-1 2v1-1zm6 0q1.5 1-1 2-1.5-1 1-2zm-4 4v1-1z" opacity=".718"/>
  <path fill="#0E888A" stroke="#0E888A" d="m69.5 81 4.5 2.5q.75 3.75-1.5 4.5-3-.88-1.5 3.5h-1q1.13-3.33-1.5-2.5-2.75-1.25-.5-2.5l-1-3 2.5-2.5z" opacity=".996"/>
  <path fill="#5FC2CE" stroke="#5FC2CE" d="M41.5 69v1-1zm-2 1v1-1zm16 1 4 4h4l4.5 3.5 1 3-2.5 2.5-9.5-9.5-2-3 .5-.5zm-12 1v1-1zm38 9v1-1zm2 0h11l2.5 2.5 1 2-1.5-.5q-2.25.75-1.5-1.5L93.5 82h-10v-1zm-10 1v1-1zm2 0 1.5.5-1.5.5v-1zm-1 2q1 2 2 0l4 1 1.5 1.5-.5 1.5h-5L74 87l.5-3zm-7 1v1-1zm-1 3 3.5 1v6.5L68.5 97 66 96l-2 5q-3.33 1.31-2-3.5 1.75-.75 1-4l3.5-5.5zm1 10v1-1zm-1 2v1-1z" opacity=".996"/>
  <path fill="#F4BDCD" stroke="#F4BDCD" d="M61.5 21v1-1zm25 17L90 48.5h-1l-3-7 .5-3.5zm-30 6v1-1zm-3 2v1-1zm26 2v1-1zm3 1v1-1zm3 1 1.5.5-1.5.5v-1zm5 4 .5.5-2.5 2.5-.5-.5 2.5-2.5zm8 2 .5.5-5.5 5.5-.5-.5 5.5-5.5zm6 1q1.5 1-1 2-1.5-1 1-2zm17 1v1-1zm-37 1v1-1zm-2 1v1-1zm19 1 .5.5-6.5 6.5-.5-.5 6.5-6.5zm-21 1q3-.5 3.5 1.5l1 2-14.5.5-1.5 1.5 2 1-3.5.5-1-1-4.5-.5 5-3-1.5-.5-3 1v-1l6-1 3 1 1-1h7l1-1zM75 64v1h8l-8-1zm17.5-1v1-1zm-5 2q1.5 1-1 2-1.5-1 1-2zm-14 4 1.5.5-1.5.5v-1zm5 1 2.5.5-2.5.5v-1zm11 1 4.5 5.5 1 4-.5.5-2.5-2.5-1-5-2-2 .5-.5zm8 2q2.5 1 1 2-2.5-1-1-2zm2 3v1-1zm1 2v1-1zm1 2v1-1zm1 2v1-1zm-4 2v1-1zm5 0 4.5 10h-3.5L98 87.5q-.75-2.25 1.5-1.5l4 3-.5-1.5.5-3.5z" opacity=".835"/>
</svg>
