<?xml version="1.0" standalone="no"?>
<!DOCTYPE svg PUBLIC "-//W3C//DTD SVG 20010904//EN"
 "http://www.w3.org/TR/2001/REC-SVG-20010904/DTD/svg10.dtd">
<svg version="1.0" xmlns="http://www.w3.org/2000/svg"
 width="120.000000pt" height="120.000000pt" viewBox="0 0 120.000000 120.000000"
 preserveAspectRatio="xMidYMid meet">

<g transform="translate(0.000000,120.000000) scale(0.100000,-0.100000)"
fill="#000000" stroke="none">
<path d="M542 993 c-7 -12 -12 -35 -12 -51 0 -27 -5 -31 -58 -50 -70 -26 -97
-45 -97 -69 0 -10 -7 -18 -15 -18 -8 -1 -27 -5 -42 -9 -18 -5 -64 -1 -132 13
-122 24 -119 24 -111 11 10 -17 75 -40 160 -59 72 -16 80 -20 83 -42 5 -49 46
-169 58 -169 13 0 26 41 20 62 -2 7 -7 39 -10 71 -5 42 -3 57 6 57 7 0 49 18
94 41 l81 42 54 -26 c57 -27 99 -41 99 -34 0 2 -18 16 -40 31 -22 14 -40 33
-40 41 0 18 -30 20 -30 3 -1 -27 -18 19 -23 64 -4 26 -13 62 -20 80 -13 32
-14 33 -25 11z m-2 -126 c0 -18 -10 -28 -39 -41 -21 -10 -58 -31 -82 -47 -45
-30 -59 -35 -59 -21 0 4 13 13 29 20 17 7 47 30 69 51 33 32 69 59 80 61 1 0
2 -11 2 -23z"/>
<path d="M813 878 c3 -29 11 -73 18 -97 10 -33 11 -45 2 -48 -16 -6 -92 -57
-128 -87 l-30 -25 30 -1 c21 0 49 14 90 45 33 25 69 45 80 45 11 0 44 -9 73
-20 29 -11 71 -20 95 -19 l42 0 -40 19 c-54 25 -29 25 30 0 61 -26 67 -25 25
4 -19 13 -41 21 -49 18 -9 -3 -12 -1 -8 5 5 7 -1 9 -15 6 -19 -4 -20 -3 -8 7
12 9 11 10 -9 5 -14 -4 -21 -3 -18 2 4 6 -4 8 -19 5 -20 -3 -23 -7 -12 -14 11
-8 10 -9 -1 -6 -22 6 -24 26 -4 31 12 3 8 5 -9 6 -19 1 -28 -4 -28 -15 0 -8
-5 -12 -10 -9 -6 4 -8 10 -5 15 3 4 -2 10 -10 14 -8 3 -15 13 -15 23 0 35 -44
143 -58 143 -11 0 -13 -12 -9 -52z"/>
<path d="M660 825 c0 -2 18 -14 40 -25 22 -11 40 -18 40 -15 0 2 -18 14 -40
25 -22 11 -40 18 -40 15z"/>
<path d="M634 405 c1 -30 24 -41 44 -21 20 20 8 46 -22 46 -19 0 -24 -5 -22
-25z"/>
</g>
</svg>
